<?xml version="1.0" encoding="UTF-8" standalone="no"?><!DOCTYPE svg PUBLIC "-//W3C//DTD SVG 1.1//EN" "http://www.w3.org/Graphics/SVG/1.1/DTD/svg11.dtd"><svg width="100%" height="100%" viewBox="0 0 12 12" version="1.1" xmlns="http://www.w3.org/2000/svg" xmlns:xlink="http://www.w3.org/1999/xlink" xml:space="preserve" xmlns:serif="http://www.serif.com/" style="fill-rule:evenodd;clip-rule:evenodd;stroke-linejoin:round;stroke-miterlimit:2;"><path d="M6.3,0.008c-0.2,-0.011 -0.4,-0.011 -0.6,0c-0.329,0.555 -0.629,1.126 -0.901,1.712c-0.216,0.06 -0.426,0.137 -0.63,0.229c-0.585,-0.274 -1.182,-0.518 -1.791,-0.732c-0.16,0.12 -0.313,0.249 -0.46,0.385c0.106,0.637 0.242,1.268 0.41,1.891c-0.126,0.185 -0.238,0.379 -0.335,0.58c-0.624,0.167 -1.238,0.364 -1.842,0.591c-0.045,0.195 -0.08,0.392 -0.105,0.591c0.491,0.42 1.001,0.815 1.53,1.185c0.022,0.222 0.061,0.443 0.116,0.66c-0.371,0.528 -0.715,1.074 -1.032,1.636c0.092,0.179 0.192,0.352 0.3,0.52c0.646,0.007 1.291,-0.018 1.934,-0.075c0.16,0.156 0.331,0.3 0.513,0.43c0.056,0.644 0.143,1.283 0.262,1.918c0.184,0.077 0.372,0.146 0.563,0.205c0.499,-0.41 0.977,-0.844 1.433,-1.301c0.223,0.017 0.447,0.017 0.67,0c0.456,0.457 0.934,0.891 1.433,1.301c0.191,-0.059 0.379,-0.128 0.563,-0.205c0.119,-0.635 0.206,-1.274 0.262,-1.918c0.182,-0.13 0.353,-0.274 0.513,-0.43c0.643,0.057 1.288,0.082 1.934,0.075c0.108,-0.168 0.208,-0.341 0.3,-0.52c-0.317,-0.562 -0.661,-1.108 -1.032,-1.636c0.055,-0.217 0.094,-0.438 0.116,-0.66c0.529,-0.37 1.039,-0.765 1.53,-1.185c-0.025,-0.199 -0.06,-0.396 -0.105,-0.591c-0.604,-0.227 -1.218,-0.424 -1.842,-0.591c-0.097,-0.201 -0.209,-0.395 -0.335,-0.58c0.168,-0.623 0.304,-1.254 0.41,-1.891c-0.147,-0.136 -0.3,-0.265 -0.46,-0.385c-0.609,0.214 -1.206,0.458 -1.791,0.732c-0.204,-0.092 -0.414,-0.169 -0.63,-0.229c-0.272,-0.586 -0.572,-1.157 -0.901,-1.712Zm-0.3,2.798c1.763,0 3.194,1.431 3.194,3.194c0,1.763 -1.431,3.194 -3.194,3.194c-1.763,0 -3.194,-1.431 -3.194,-3.194c0,-1.763 1.431,-3.194 3.194,-3.194Z" style="fill:#fff;"/></svg>