<svg id="sun" xmlns="http://www.w3.org/2000/svg" width="16" height="16" viewBox="0 0 16 16">
  <rect id="Artboard1" width="16" height="16" fill="none"/>
  <g id="Artboard11" transform="translate(0.391)">
    <path id="Path_1" data-name="Path 1" d="M7.891,0l1.3,3.994,3.4-2.468-1.3,3.994h4.2l-3.4,2.468,3.4,2.468h-4.2l1.3,3.994-3.4-2.468-1.3,3.994-1.3-3.994L3.2,14.451l1.3-3.994H.294l3.4-2.468L.294,5.52h4.2L3.2,1.526l3.4,2.468L7.891,0Zm0,4.564A3.424,3.424,0,1,1,4.467,7.989,3.425,3.425,0,0,1,7.891,4.564Z" transform="translate(-0.294)" fill="#fff" fill-rule="evenodd"/>
    <circle id="Ellipse_4" data-name="Ellipse 4" cx="3" cy="3" r="3" transform="translate(4.609 5)" fill="#fff"/>
  </g>
</svg>
